<svg width="32" height="32" viewBox="0 0 32 32" fill="none" xmlns="http://www.w3.org/2000/svg">
  <!-- Marnee body silhouette -->
  <path d="M16 30C24 30 29 24 29 17C29 10 24 6 16 6C8 6 3 10 3 17C3 24 8 30 16 30Z" fill="url(#favBody)" />
  <!-- Left ear -->
  <path d="M7 8C5 4 6 1 9 1C12 1 12 4 11 8" fill="url(#favBody)" />
  <!-- Right ear -->
  <path d="M25 8C27 4 26 1 23 1C20 1 20 4 21 8" fill="url(#favBody)" />
  <!-- Headset band -->
  <path d="M5 13C5 8 9 4 16 4C23 4 27 8 27 13" stroke="url(#favHeadset)" stroke-width="2.5" stroke-linecap="round" fill="none" />
  <!-- Left headphone -->
  <rect x="1" y="11" width="5" height="7" rx="2" fill="url(#favHeadset)" />
  <!-- Right headphone -->
  <rect x="26" y="11" width="5" height="7" rx="2" fill="url(#favHeadset)" />
  <!-- Microphone arm -->
  <path d="M6 16C6 16 8 18 10 22" stroke="url(#favHeadset)" stroke-width="2" stroke-linecap="round" fill="none" />
  <!-- Microphone tip -->
  <circle cx="11" cy="23" r="2.5" fill="url(#favMic)" />
  <defs>
    <linearGradient id="favBody" x1="0%" y1="0%" x2="100%" y2="100%">
      <stop offset="0%" stop-color="#A855F7" />
      <stop offset="100%" stop-color="#8B5CF6" />
    </linearGradient>
    <linearGradient id="favHeadset" x1="0%" y1="0%" x2="100%" y2="100%">
      <stop offset="0%" stop-color="#7C3AED" />
      <stop offset="100%" stop-color="#6D28D9" />
    </linearGradient>
    <linearGradient id="favMic" x1="0%" y1="0%" x2="100%" y2="100%">
      <stop offset="0%" stop-color="#EC4899" />
      <stop offset="100%" stop-color="#DB2777" />
    </linearGradient>
  </defs>
</svg>
